<svg xmlns="http://www.w3.org/2000/svg" xmlns:xlink="http://www.w3.org/1999/xlink" width="512" zoomAndPan="magnify" viewBox="0 0 384 383.999986" height="512" preserveAspectRatio="xMidYMid meet" version="1.0"><defs><clipPath id="17822f5349"><path d="M 49.726562 38.398438 L 333.976562 38.398438 L 333.976562 345.898438 L 49.726562 345.898438 Z M 49.726562 38.398438 " clip-rule="nonzero"/></clipPath></defs><g clip-path="url(#17822f5349)"><path fill="#101010" d="M 333.886719 174.726562 C 333.886719 174.566406 333.808594 174.484375 333.648438 174.40625 C 333.488281 174.324219 333.324219 174.324219 333.246094 174.40625 L 312.847656 186.71875 L 283.050781 168.691406 C 283.050781 168.691406 282.96875 168.691406 282.96875 168.691406 L 250.039062 154.285156 L 250.039062 111.472656 C 250.039062 111.472656 250.039062 111.390625 250.039062 111.390625 L 283.050781 96.90625 C 283.210938 96.824219 283.289062 96.664062 283.289062 96.503906 L 283.289062 53.367188 C 283.289062 53.289062 283.289062 53.289062 283.289062 53.207031 C 283.289062 53.207031 283.289062 53.207031 283.289062 53.128906 C 283.289062 53.046875 283.210938 53.046875 283.128906 53.046875 L 249.800781 38.480469 C 249.71875 38.398438 249.558594 38.398438 249.476562 38.480469 L 216.308594 53.046875 C 216.226562 53.046875 216.226562 53.128906 216.148438 53.128906 C 216.148438 53.128906 216.148438 53.128906 216.148438 53.207031 C 216.148438 53.289062 216.148438 53.289062 216.148438 53.367188 L 216.148438 96.421875 C 216.148438 96.421875 216.148438 96.503906 216.148438 96.503906 L 183.699219 110.75 L 183.699219 38.882812 C 183.699219 38.882812 183.699219 38.800781 183.699219 38.800781 C 183.699219 38.800781 183.699219 38.722656 183.699219 38.722656 C 183.699219 38.722656 183.699219 38.640625 183.621094 38.640625 C 183.621094 38.640625 183.539062 38.640625 183.539062 38.5625 C 183.539062 38.5625 183.539062 38.5625 183.460938 38.5625 C 183.460938 38.5625 183.378906 38.5625 183.300781 38.5625 C 183.300781 38.5625 183.21875 38.5625 183.21875 38.5625 C 183.21875 38.5625 183.140625 38.5625 183.140625 38.5625 L 149.96875 53.128906 C 149.890625 53.128906 149.890625 53.207031 149.808594 53.207031 C 149.808594 53.207031 149.808594 53.207031 149.808594 53.289062 C 149.808594 53.367188 149.808594 53.367188 149.808594 53.449219 L 149.808594 96.503906 C 149.808594 96.503906 149.808594 96.585938 149.808594 96.585938 L 116.800781 111.070312 C 116.71875 111.070312 116.71875 111.152344 116.640625 111.152344 C 116.640625 111.152344 116.640625 111.152344 116.640625 111.230469 C 116.640625 111.3125 116.640625 111.3125 116.640625 111.390625 L 116.640625 154.125 L 84.273438 139.960938 L 84.273438 100.285156 L 125.554688 75.257812 C 125.632812 75.175781 125.714844 75.015625 125.714844 74.9375 C 125.714844 74.855469 125.632812 74.695312 125.554688 74.613281 L 84.03125 49.503906 C 83.871094 49.425781 83.789062 49.425781 83.628906 49.503906 C 83.46875 49.585938 83.390625 49.746094 83.390625 49.828125 L 83.390625 99.238281 L 49.898438 119.519531 C 49.816406 119.601562 49.738281 119.761719 49.738281 119.84375 C 49.738281 119.921875 49.816406 120.082031 49.898438 120.164062 L 82.90625 140.121094 L 50.300781 154.367188 C 50.140625 154.445312 50.058594 154.609375 50.058594 154.769531 L 50.058594 197.824219 C 50.058594 197.984375 50.140625 198.144531 50.300781 198.226562 L 83.230469 212.632812 L 83.230469 255.121094 C 83.230469 255.285156 83.308594 255.445312 83.46875 255.523438 L 116.640625 270.089844 C 116.71875 270.089844 116.71875 270.089844 116.800781 270.089844 C 116.878906 270.089844 116.960938 270.089844 116.960938 270.011719 C 117.039062 269.929688 117.039062 269.929688 117.121094 269.851562 C 117.121094 269.851562 117.121094 269.769531 117.121094 269.769531 C 117.121094 269.769531 117.121094 269.6875 117.121094 269.6875 L 117.121094 226.875 L 149.488281 212.710938 L 149.488281 255.203125 C 149.488281 255.445312 149.648438 255.605469 149.890625 255.605469 C 150.128906 255.605469 150.289062 255.445312 150.289062 255.203125 L 150.289062 212.792969 L 182.65625 226.957031 L 182.65625 269.769531 C 182.65625 269.929688 182.738281 270.089844 182.898438 270.171875 L 215.425781 284.417969 L 165.628906 314.515625 C 165.550781 314.59375 165.46875 314.753906 165.46875 314.835938 C 165.46875 314.917969 165.550781 315.078125 165.628906 315.15625 L 216.226562 345.820312 C 216.308594 345.820312 216.390625 345.898438 216.46875 345.898438 C 216.550781 345.898438 216.628906 345.898438 216.628906 345.820312 C 216.789062 345.738281 216.871094 345.578125 216.871094 345.496094 L 216.871094 284.496094 L 249.800781 270.089844 C 250.039062 270.011719 250.121094 269.769531 250.039062 269.527344 C 249.960938 269.285156 249.71875 269.207031 249.476562 269.285156 L 216.871094 283.609375 L 216.871094 241.441406 L 249.640625 227.035156 C 249.878906 227.035156 250.039062 226.875 250.039062 226.632812 L 250.039062 183.902344 L 282.488281 169.65625 L 282.488281 230.335938 C 282.488281 230.496094 282.566406 230.578125 282.726562 230.65625 C 282.808594 230.65625 282.886719 230.738281 282.886719 230.738281 C 282.96875 230.738281 283.050781 230.738281 283.128906 230.65625 L 333.726562 199.996094 C 333.726562 199.996094 333.808594 199.914062 333.808594 199.914062 C 333.808594 199.914062 333.808594 199.914062 333.886719 199.835938 C 333.886719 199.753906 333.96875 199.675781 333.96875 199.675781 L 333.96875 174.726562 Z M 333.085938 175.449219 L 333.085938 198.949219 L 331.238281 197.824219 L 313.730469 187.199219 Z M 216.46875 240.71875 L 184.34375 226.632812 L 216.550781 212.550781 L 248.675781 226.632812 Z M 116.878906 226.152344 L 85.074219 212.230469 L 117.039062 198.226562 C 117.121094 198.226562 117.121094 198.144531 117.203125 198.144531 L 149.085938 212.148438 Z M 249.238281 68.175781 L 249.238281 110.347656 L 216.871094 96.183594 L 216.871094 54.011719 Z M 249.238281 225.992188 L 216.871094 211.828125 L 216.871094 169.65625 L 249.238281 183.820312 Z M 117.28125 155.089844 L 149.648438 169.253906 L 149.648438 211.425781 L 117.28125 197.261719 Z M 216.066406 211.828125 L 183.621094 225.992188 L 183.621094 183.820312 L 215.988281 169.65625 L 215.988281 211.828125 Z M 216.066406 168.371094 L 183.699219 154.207031 L 183.699219 112.035156 L 216.066406 126.199219 Z M 183.21875 154.929688 L 215.425781 169.011719 L 183.21875 183.097656 L 151.011719 169.011719 Z M 249.238281 154.207031 L 216.871094 168.371094 L 216.871094 126.199219 L 249.238281 112.035156 Z M 216.46875 97.308594 L 248.675781 111.390625 L 216.46875 125.476562 L 184.261719 111.390625 Z M 182.816406 67.289062 L 151.011719 53.367188 L 182.816406 39.445312 Z M 182.816406 68.175781 L 182.816406 110.347656 L 150.453125 96.183594 L 150.453125 54.011719 Z M 150.050781 97.308594 L 182.253906 111.390625 L 150.050781 125.476562 L 117.84375 111.390625 Z M 149.890625 126.28125 C 149.96875 126.28125 149.96875 126.28125 150.050781 126.28125 C 150.128906 126.28125 150.128906 126.28125 150.210938 126.28125 L 182.816406 111.957031 L 182.816406 154.125 L 150.050781 168.53125 L 117.28125 154.125 L 117.28125 111.957031 Z M 116.476562 197.261719 L 84.113281 211.425781 L 84.113281 169.578125 L 116.476562 155.414062 Z M 150.453125 169.65625 L 182.816406 183.820312 L 182.816406 225.992188 L 150.453125 211.828125 Z M 249.640625 183.175781 L 218.398438 169.496094 L 280.960938 169.496094 Z M 218.398438 168.609375 L 249.640625 154.929688 L 280.878906 168.609375 Z M 250.039062 110.425781 L 250.039062 68.175781 L 282.488281 54.011719 L 282.488281 96.183594 Z M 249.640625 39.285156 L 281.84375 53.367188 L 249.640625 67.453125 L 217.433594 53.367188 Z M 84.03125 50.550781 L 124.347656 74.9375 L 84.03125 99.320312 Z M 83.230469 100.207031 L 83.230469 139.558594 L 50.703125 119.921875 Z M 50.863281 155.011719 L 83.628906 140.605469 L 115.835938 154.6875 L 83.46875 168.851562 C 83.46875 168.851562 83.390625 168.851562 83.390625 168.933594 C 83.390625 168.933594 83.390625 168.933594 83.308594 169.011719 C 83.308594 169.011719 83.308594 169.09375 83.230469 169.09375 C 83.230469 169.09375 83.230469 169.175781 83.230469 169.175781 C 83.230469 169.175781 83.230469 169.175781 83.230469 169.253906 L 83.230469 211.746094 L 50.863281 197.582031 Z M 84.03125 212.710938 L 116.398438 226.875 L 116.398438 269.046875 L 84.03125 254.882812 Z M 183.621094 227.277344 L 215.988281 241.441406 L 215.988281 283.609375 L 183.621094 269.449219 Z M 216.066406 344.855469 L 166.59375 314.917969 L 216.066406 284.980469 Z M 283.289062 169.738281 L 312.683594 187.523438 L 332.683594 199.675781 L 283.289062 229.613281 Z M 283.289062 169.738281 " fill-opacity="1" fill-rule="nonzero"/></g></svg>